<?xml version="1.0" encoding="UTF-8"?>
<svg version="1.1" xmlns="http://www.w3.org/2000/svg" width="512" height="512">
    <path d="M0 0 C0.68498543 -0.00350607 1.36997086 -0.00701215 2.07571343 -0.01062447 C4.37586582 -0.01994406 6.67576534 -0.0150138 8.97592831 -0.01015663 C10.63968946 -0.01389259 12.30344886 -0.01849389 13.96720546 -0.02388728 C18.5430406 -0.03613896 23.11880273 -0.03585427 27.69465053 -0.03349853 C32.62789375 -0.03309092 37.56111339 -0.04412396 42.49434566 -0.05361366 C52.1598309 -0.0702353 61.82529175 -0.07572369 71.49079008 -0.07683842 C79.3439018 -0.07778811 87.19700546 -0.08189445 95.05011463 -0.08823967 C117.30133927 -0.10585336 139.55254461 -0.11507806 161.80377627 -0.11357872 C163.60359823 -0.11345885 163.60359823 -0.11345885 165.43978024 -0.11333656 C166.64112124 -0.1132548 167.84246224 -0.11317304 169.08020752 -0.1130888 C188.56409804 -0.11227532 208.04791136 -0.13142826 227.53177954 -0.1596133 C247.52414205 -0.18830648 267.51646687 -0.20215564 287.50885051 -0.20042574 C298.73862781 -0.19976072 309.96832413 -0.20530218 321.19808292 -0.22678185 C330.7561313 -0.24494654 340.31406197 -0.24937972 349.87212009 -0.235763 C354.75159986 -0.22921013 359.63085349 -0.2291994 364.51031208 -0.2464695 C368.97306437 -0.26210286 373.43540939 -0.25943724 377.89815115 -0.24190123 C379.51650269 -0.23880977 381.1348839 -0.24254367 382.75320048 -0.25362138 C384.94600301 -0.26764293 387.13735704 -0.25723723 389.33010864 -0.24050903 C391.16009229 -0.24116114 391.16009229 -0.24116114 393.02704531 -0.24182642 C396.7101083 0.35594485 397.89810305 1.29419985 400.10213375 4.25726891 C400.55623531 7.28168297 400.55623531 7.28168297 400.49275875 10.77289391 C400.47342281 12.64847984 400.47342281 12.64847984 400.45369625 14.56195641 C400.40342281 16.51488609 400.40342281 16.51488609 400.35213375 18.50726891 C400.33408688 19.82469078 400.31604 21.14211266 400.29744625 22.49945641 C400.25029646 25.75279198 400.18449419 29.00466515 400.10213375 32.25726891 C400.92938961 32.23632164 401.75664547 32.21537437 402.60896969 32.19379234 C406.35656745 32.11065271 410.10397124 32.0586136 413.85213375 32.00726891 C415.15408688 31.97375328 416.45604 31.94023766 417.79744625 31.90570641 C419.04783688 31.89281578 420.2982275 31.87992516 421.58650875 31.86664391 C422.73860836 31.84569664 423.89070797 31.82474937 425.07771969 31.80316734 C428.87118967 32.37273904 429.78965314 33.23498745 432.10213375 36.25726891 C432.61006832 39.44476891 432.61006832 39.44476891 432.61971188 43.25726891 C432.63022579 44.30189293 432.63022579 44.30189293 432.64095211 45.36762047 C432.65852571 47.66457822 432.64691295 49.96029911 432.63338375 52.25726891 C432.63607888 53.85622964 432.63996148 55.45518878 432.64498043 57.05414391 C432.65087457 60.40326116 432.64231568 63.75195134 432.62361813 67.10101891 C432.6008281 71.39205482 432.61395171 75.68209002 432.63790798 79.97308922 C432.65236855 83.27427257 432.6477589 86.57521901 432.63739681 89.87640953 C432.63473021 91.45844199 432.63799697 93.04049602 432.64731503 94.62250328 C432.65748554 96.83467053 432.64197565 99.0452219 432.61971188 101.25726891 C432.6165295 102.51539391 432.61334713 103.77351891 432.61006832 105.06976891 C432.01140386 108.8266366 431.13174296 110.02246591 428.10213375 112.25726891 C425.07771969 112.71137047 425.07771969 112.71137047 421.58650875 112.64789391 C420.33611813 112.63500328 419.0857275 112.62211266 417.79744625 112.60883141 C416.49549313 112.57531578 415.19354 112.54180016 413.85213375 112.50726891 C412.53471188 112.48922203 411.21729 112.47117516 409.85994625 112.45258141 C406.60703219 112.40543772 403.35449158 112.33369507 400.10213375 112.25726891 C400.10213375 117.53726891 400.10213375 122.81726891 400.10213375 128.25726891 C402.0769775 128.21086266 404.05182125 128.16445641 406.08650875 128.11664391 C408.67503532 128.07912903 411.26357821 128.04272857 413.85213375 128.00726891 C415.15408688 127.97375328 416.45604 127.94023766 417.79744625 127.90570641 C419.04783688 127.89281578 420.2982275 127.87992516 421.58650875 127.86664391 C422.73860836 127.84569664 423.89070797 127.82474937 425.07771969 127.80316734 C428.87118967 128.37273904 429.78965314 129.23498745 432.10213375 132.25726891 C432.61006832 135.44476891 432.61006832 135.44476891 432.61971188 139.25726891 C432.63022579 140.30189293 432.63022579 140.30189293 432.64095211 141.36762047 C432.65852571 143.66457822 432.64691295 145.96029911 432.63338375 148.25726891 C432.63607888 149.85622964 432.63996148 151.45518878 432.64498043 153.05414391 C432.65087457 156.40326116 432.64231568 159.75195134 432.62361813 163.10101891 C432.6008281 167.39205482 432.61395171 171.68209002 432.63790798 175.97308922 C432.65236855 179.27427257 432.6477589 182.57521901 432.63739681 185.87640953 C432.63473021 187.45844199 432.63799697 189.04049602 432.64731503 190.62250328 C432.65748554 192.83467053 432.64197565 195.0452219 432.61971188 197.25726891 C432.6165295 198.51539391 432.61334713 199.77351891 432.61006832 201.06976891 C432.01140386 204.8266366 431.13174296 206.02246591 428.10213375 208.25726891 C425.07771969 208.71137047 425.07771969 208.71137047 421.58650875 208.64789391 C419.71092281 208.62855797 419.71092281 208.62855797 417.79744625 208.60883141 C415.84451656 208.55855797 415.84451656 208.55855797 413.85213375 208.50726891 C412.53471188 208.48922203 411.21729 208.47117516 409.85994625 208.45258141 C406.60703219 208.40543772 403.35449158 208.33369507 400.10213375 208.25726891 C400.10213375 213.53726891 400.10213375 218.81726891 400.10213375 224.25726891 C403.06439938 224.18765953 403.06439938 224.18765953 406.08650875 224.11664391 C408.67503532 224.07912903 411.26357821 224.04272857 413.85213375 224.00726891 C415.15408688 223.97375328 416.45604 223.94023766 417.79744625 223.90570641 C419.04783688 223.89281578 420.2982275 223.87992516 421.58650875 223.86664391 C422.73860836 223.84569664 423.89070797 223.82474937 425.07771969 223.80316734 C428.87118967 224.37273904 429.78965314 225.23498745 432.10213375 228.25726891 C432.61006832 231.44476891 432.61006832 231.44476891 432.61971188 235.25726891 C432.63022579 236.30189293 432.63022579 236.30189293 432.64095211 237.36762047 C432.65852571 239.66457822 432.64691295 241.96029911 432.63338375 244.25726891 C432.63607888 245.85622964 432.63996148 247.45518878 432.64498043 249.05414391 C432.65087457 252.40326116 432.64231568 255.75195134 432.62361813 259.10101891 C432.6008281 263.39205482 432.61395171 267.68209002 432.63790798 271.97308922 C432.65236855 275.27427257 432.6477589 278.57521901 432.63739681 281.87640953 C432.63473021 283.45844199 432.63799697 285.04049602 432.64731503 286.62250328 C432.65748554 288.83467053 432.64197565 291.0452219 432.61971188 293.25726891 C432.6165295 294.51539391 432.61334713 295.77351891 432.61006832 297.06976891 C431.99212651 300.94760997 431.18277764 301.89026298 428.10213375 304.25726891 C425.07771969 304.71137047 425.07771969 304.71137047 421.58650875 304.64789391 C420.33611813 304.63500328 419.0857275 304.62211266 417.79744625 304.60883141 C415.84451656 304.55855797 415.84451656 304.55855797 413.85213375 304.50726891 C412.53471188 304.48922203 411.21729 304.47117516 409.85994625 304.45258141 C406.60661067 304.40543161 403.3547375 304.33962934 400.10213375 304.25726891 C400.10582092 305.22248341 400.10950809 306.18769791 400.113307 307.18216133 C400.20204076 330.65023362 400.26780609 354.1182842 400.30938244 377.58648872 C400.33002202 388.93546822 400.35816934 400.28433702 400.40389156 411.63324547 C400.44371653 421.52307083 400.4695564 431.41281604 400.47848773 441.30271935 C400.48370983 446.54108555 400.49601268 451.77922238 400.52505398 457.01751518 C400.55215447 461.94555137 400.56058961 466.87326318 400.55456448 471.80136681 C400.55566712 473.61221897 400.56365288 475.42308171 400.57895565 477.23386955 C400.5988 479.70266237 400.59409386 482.17022367 400.58315182 484.63904381 C400.59480318 485.35889072 400.60645455 486.07873764 400.61845899 486.82039809 C400.58066851 489.96561715 400.3816955 491.87778131 398.49409962 494.44007468 C395.2997656 496.86683394 393.33071323 496.75850554 389.33848858 496.76063347 C388.65585538 496.76644723 387.97322218 496.77226099 387.26990312 496.77825093 C384.97141688 496.7929051 382.67398952 496.77894149 380.37551022 496.76520348 C378.71545942 496.76981031 377.05541269 496.77616176 375.39537454 496.78411245 C370.82491219 496.80085958 366.25478256 496.792535 361.68431878 496.78016758 C356.75846806 496.77114107 351.83267574 496.78507506 346.90683651 496.79608727 C337.2525361 496.81390436 327.59835985 496.81001786 317.94405451 496.7984367 C310.09762069 496.78941309 302.25122173 496.78817374 294.4047842 496.79253197 C293.28916537 496.7931449 292.17354653 496.79375783 291.02412106 496.79438934 C288.75790204 496.79566821 286.49168302 496.79696507 284.22546402 496.7982797 C262.95717991 496.80969539 241.68896468 496.7965574 220.42069188 496.77507824 C202.16912624 496.75721618 183.91766238 496.76030211 165.66609859 496.77875328 C144.48152911 496.80015945 123.29702009 496.80858631 102.1124413 496.79630423 C99.85320966 496.79503001 97.59397802 496.79377253 95.33474636 496.79253197 C94.22311557 496.79191487 93.11148478 496.79129776 91.96616821 496.79066196 C84.13065407 496.78720757 76.29517827 496.79303954 68.45967007 496.80245018 C58.90828657 496.81366914 49.35703456 496.81063262 39.80566612 496.7893272 C34.93178232 496.77881396 30.05811775 496.77469957 25.18423557 496.78792381 C20.7218366 496.79984836 16.25985991 496.79328405 11.79749921 496.7720136 C10.18376323 496.76754769 8.56999152 496.7698136 6.95627853 496.77951676 C-2.44572995 496.83171052 -9.74723556 496.77080067 -17.14005375 490.29242516 C-17.67888187 489.64144859 -18.21771 488.99047203 -18.77286625 488.31976891 C-19.32716312 487.67137047 -19.88146 487.02297203 -20.45255375 486.35492516 C-23.760537 481.55387919 -24.18746221 477.15690805 -24.15513515 471.44915104 C-24.15864123 470.66574995 -24.1621473 469.88234886 -24.16575962 469.07520834 C-24.17509139 466.44024284 -24.17014573 463.80549749 -24.16529179 461.17052269 C-24.16902715 459.26624935 -24.17362821 457.36197754 -24.17902243 455.45770818 C-24.19128191 450.21690522 -24.1909885 444.97616596 -24.18863368 439.73535192 C-24.18822626 434.08628054 -24.19925751 428.43722978 -24.20874882 422.78816795 C-24.22537587 411.71763861 -24.23085913 400.64713057 -24.23197357 389.57658979 C-24.23292323 380.57982467 -24.23702937 371.5830666 -24.24337482 362.58630371 C-24.25812412 341.24058519 -24.27042406 319.89487327 -24.26937771 298.54914951 C-24.26934655 297.8663999 -24.26931539 297.18365029 -24.26928329 296.48021129 C-24.26911708 293.01970336 -24.26891899 289.55919543 -24.26871388 286.09868749 C-24.26867399 285.41141064 -24.2686341 284.7241338 -24.268593 284.01603038 C-24.26851212 282.62618884 -24.26842853 281.2363473 -24.26834221 279.84650575 C-24.26711667 258.22225083 -24.28212998 236.59805862 -24.30948734 214.97382164 C-24.34020621 190.68248772 -24.35739462 166.39120781 -24.3555609 142.09985048 C-24.35489632 129.23680448 -24.36041819 116.37382922 -24.381917 103.51079941 C-24.40010285 92.55959165 -24.40449747 81.60848669 -24.39089815 70.65727039 C-24.38435546 65.0684622 -24.38429832 59.47985136 -24.40160465 53.89106178 C-24.41728274 48.77553574 -24.41452559 43.6603644 -24.39703639 38.54484729 C-24.39395488 36.69358649 -24.39764199 34.84229957 -24.40875654 32.99106958 C-24.42286532 30.47458693 -24.41230171 27.95935055 -24.39564419 25.44291019 C-24.40558055 24.72414795 -24.41551691 24.0053857 -24.42575437 23.26484278 C-24.33610843 16.85921638 -22.11026414 11.78195357 -17.9330225 7.01508141 C-17.28204594 6.47625328 -16.63106937 5.93742516 -15.96036625 5.38226891 C-15.31196781 4.82797203 -14.66356937 4.27367516 -13.9955225 3.70258141 C-9.41780823 0.5484766 -5.50735 0.00635907 0 0 Z " fill="#F45D3B" transform="translate(55.89786624908447,7.742731094360352)"/>
    <path d="M0 0 C0.68498543 -0.00350607 1.36997086 -0.00701215 2.07571343 -0.01062447 C4.37586582 -0.01994406 6.67576534 -0.0150138 8.97592831 -0.01015663 C10.63968946 -0.01389259 12.30344886 -0.01849389 13.96720546 -0.02388728 C18.5430406 -0.03613896 23.11880273 -0.03585427 27.69465053 -0.03349853 C32.62789375 -0.03309092 37.56111339 -0.04412396 42.49434566 -0.05361366 C52.1598309 -0.0702353 61.82529175 -0.07572369 71.49079008 -0.07683842 C79.3439018 -0.07778811 87.19700546 -0.08189445 95.05011463 -0.08823967 C117.30133927 -0.10585336 139.55254461 -0.11507806 161.80377627 -0.11357872 C163.60359823 -0.11345885 163.60359823 -0.11345885 165.43978024 -0.11333656 C166.64112124 -0.1132548 167.84246224 -0.11317304 169.08020752 -0.1130888 C188.56409804 -0.11227532 208.04791136 -0.13142826 227.53177954 -0.1596133 C247.52414205 -0.18830648 267.51646687 -0.20215564 287.50885051 -0.20042574 C298.73862781 -0.19976072 309.96832413 -0.20530218 321.19808292 -0.22678185 C330.7561313 -0.24494654 340.31406197 -0.24937972 349.87212009 -0.235763 C354.75159986 -0.22921013 359.63085349 -0.2291994 364.51031208 -0.2464695 C368.97306437 -0.26210286 373.43540939 -0.25943724 377.89815115 -0.24190123 C379.51650269 -0.23880977 381.1348839 -0.24254367 382.75320048 -0.25362138 C384.94600301 -0.26764293 387.13735704 -0.25723723 389.33010864 -0.24050903 C391.16009229 -0.24116114 391.16009229 -0.24116114 393.02704531 -0.24182642 C396.7101083 0.35594485 397.89810305 1.29419985 400.10213375 4.25726891 C400.55623531 7.28168297 400.55623531 7.28168297 400.49275875 10.77289391 C400.47342281 12.64847984 400.47342281 12.64847984 400.45369625 14.56195641 C400.40342281 16.51488609 400.40342281 16.51488609 400.35213375 18.50726891 C400.33408688 19.82469078 400.31604 21.14211266 400.29744625 22.49945641 C400.25029646 25.75279198 400.18449419 29.00466515 400.10213375 32.25726891 C400.92938961 32.23632164 401.75664547 32.21537437 402.60896969 32.19379234 C406.35656745 32.11065271 410.10397124 32.0586136 413.85213375 32.00726891 C415.15408688 31.97375328 416.45604 31.94023766 417.79744625 31.90570641 C419.04783688 31.89281578 420.2982275 31.87992516 421.58650875 31.86664391 C422.73860836 31.84569664 423.89070797 31.82474937 425.07771969 31.80316734 C428.87118967 32.37273904 429.78965314 33.23498745 432.10213375 36.25726891 C432.61006832 39.44476891 432.61006832 39.44476891 432.61971188 43.25726891 C432.63022579 44.30189293 432.63022579 44.30189293 432.64095211 45.36762047 C432.65852571 47.66457822 432.64691295 49.96029911 432.63338375 52.25726891 C432.63607888 53.85622964 432.63996148 55.45518878 432.64498043 57.05414391 C432.65087457 60.40326116 432.64231568 63.75195134 432.62361813 67.10101891 C432.6008281 71.39205482 432.61395171 75.68209002 432.63790798 79.97308922 C432.65236855 83.27427257 432.6477589 86.57521901 432.63739681 89.87640953 C432.63473021 91.45844199 432.63799697 93.04049602 432.64731503 94.62250328 C432.65748554 96.83467053 432.64197565 99.0452219 432.61971188 101.25726891 C432.6165295 102.51539391 432.61334713 103.77351891 432.61006832 105.06976891 C432.01140386 108.8266366 431.13174296 110.02246591 428.10213375 112.25726891 C425.07771969 112.71137047 425.07771969 112.71137047 421.58650875 112.64789391 C420.33611813 112.63500328 419.0857275 112.62211266 417.79744625 112.60883141 C416.49549313 112.57531578 415.19354 112.54180016 413.85213375 112.50726891 C412.53471188 112.48922203 411.21729 112.47117516 409.85994625 112.45258141 C406.60703219 112.40543772 403.35449158 112.33369507 400.10213375 112.25726891 C400.10213375 117.53726891 400.10213375 122.81726891 400.10213375 128.25726891 C402.0769775 128.21086266 404.05182125 128.16445641 406.08650875 128.11664391 C408.67503532 128.07912903 411.26357821 128.04272857 413.85213375 128.00726891 C415.15408688 127.97375328 416.45604 127.94023766 417.79744625 127.90570641 C419.04783688 127.89281578 420.2982275 127.87992516 421.58650875 127.86664391 C422.73860836 127.84569664 423.89070797 127.82474937 425.07771969 127.80316734 C428.87118967 128.37273904 429.78965314 129.23498745 432.10213375 132.25726891 C432.61006832 135.44476891 432.61006832 135.44476891 432.61971188 139.25726891 C432.63022579 140.30189293 432.63022579 140.30189293 432.64095211 141.36762047 C432.65852571 143.66457822 432.64691295 145.96029911 432.63338375 148.25726891 C432.63607888 149.85622964 432.63996148 151.45518878 432.64498043 153.05414391 C432.65087457 156.40326116 432.64231568 159.75195134 432.62361813 163.10101891 C432.6008281 167.39205482 432.61395171 171.68209002 432.63790798 175.97308922 C432.65236855 179.27427257 432.6477589 182.57521901 432.63739681 185.87640953 C432.63473021 187.45844199 432.63799697 189.04049602 432.64731503 190.62250328 C432.65748554 192.83467053 432.64197565 195.0452219 432.61971188 197.25726891 C432.6165295 198.51539391 432.61334713 199.77351891 432.61006832 201.06976891 C432.01140386 204.8266366 431.13174296 206.02246591 428.10213375 208.25726891 C425.07771969 208.71137047 425.07771969 208.71137047 421.58650875 208.64789391 C419.71092281 208.62855797 419.71092281 208.62855797 417.79744625 208.60883141 C415.84451656 208.55855797 415.84451656 208.55855797 413.85213375 208.50726891 C412.53471188 208.48922203 411.21729 208.47117516 409.85994625 208.45258141 C406.60703219 208.40543772 403.35449158 208.33369507 400.10213375 208.25726891 C400.10213375 213.53726891 400.10213375 218.81726891 400.10213375 224.25726891 C403.06439938 224.18765953 403.06439938 224.18765953 406.08650875 224.11664391 C408.67503532 224.07912903 411.26357821 224.04272857 413.85213375 224.00726891 C415.15408688 223.97375328 416.45604 223.94023766 417.79744625 223.90570641 C419.04783688 223.89281578 420.2982275 223.87992516 421.58650875 223.86664391 C422.73860836 223.84569664 423.89070797 223.82474937 425.07771969 223.80316734 C428.87118967 224.37273904 429.78965314 225.23498745 432.10213375 228.25726891 C432.61006832 231.44476891 432.61006832 231.44476891 432.61971188 235.25726891 C432.63022579 236.30189293 432.63022579 236.30189293 432.64095211 237.36762047 C432.65852571 239.66457822 432.64691295 241.96029911 432.63338375 244.25726891 C432.63607888 245.85622964 432.63996148 247.45518878 432.64498043 249.05414391 C432.65087457 252.40326116 432.64231568 255.75195134 432.62361813 259.10101891 C432.6008281 263.39205482 432.61395171 267.68209002 432.63790798 271.97308922 C432.65236855 275.27427257 432.6477589 278.57521901 432.63739681 281.87640953 C432.63473021 283.45844199 432.63799697 285.04049602 432.64731503 286.62250328 C432.65748554 288.83467053 432.64197565 291.0452219 432.61971188 293.25726891 C432.6165295 294.51539391 432.61334713 295.77351891 432.61006832 297.06976891 C431.99212651 300.94760997 431.18277764 301.89026298 428.10213375 304.25726891 C425.07771969 304.71137047 425.07771969 304.71137047 421.58650875 304.64789391 C420.33611813 304.63500328 419.0857275 304.62211266 417.79744625 304.60883141 C415.84451656 304.55855797 415.84451656 304.55855797 413.85213375 304.50726891 C412.53471188 304.48922203 411.21729 304.47117516 409.85994625 304.45258141 C406.60661067 304.40543161 403.3547375 304.33962934 400.10213375 304.25726891 C400.10582092 305.22248341 400.10950809 306.18769791 400.113307 307.18216133 C400.20204076 330.65023362 400.26780609 354.1182842 400.30938244 377.58648872 C400.33002202 388.93546822 400.35816934 400.28433702 400.40389156 411.63324547 C400.44371653 421.52307083 400.4695564 431.41281604 400.47848773 441.30271935 C400.48370983 446.54108555 400.49601268 451.77922238 400.52505398 457.01751518 C400.55215447 461.94555137 400.56058961 466.87326318 400.55456448 471.80136681 C400.55566712 473.61221897 400.56365288 475.42308171 400.57895565 477.23386955 C400.5988 479.70266237 400.59409386 482.17022367 400.58315182 484.63904381 C400.59480318 485.35889072 400.60645455 486.07873764 400.61845899 486.82039809 C400.58066851 489.96561715 400.3816955 491.87778131 398.49409962 494.44007468 C395.2997656 496.86683394 393.33071323 496.75850554 389.33848858 496.76063347 C388.65585538 496.76644723 387.97322218 496.77226099 387.26990312 496.77825093 C384.97141688 496.7929051 382.67398952 496.77894149 380.37551022 496.76520348 C378.71545942 496.76981031 377.05541269 496.77616176 375.39537454 496.78411245 C370.82491219 496.80085958 366.25478256 496.792535 361.68431878 496.78016758 C356.75846806 496.77114107 351.83267574 496.78507506 346.90683651 496.79608727 C337.2525361 496.81390436 327.59835985 496.81001786 317.94405451 496.7984367 C310.09762069 496.78941309 302.25122173 496.78817374 294.4047842 496.79253197 C293.28916537 496.7931449 292.17354653 496.79375783 291.02412106 496.79438934 C288.75790204 496.79566821 286.49168302 496.79696507 284.22546402 496.7982797 C262.95717991 496.80969539 241.68896468 496.7965574 220.42069188 496.77507824 C202.16912624 496.75721618 183.91766238 496.76030211 165.66609859 496.77875328 C144.48152911 496.80015945 123.29702009 496.80858631 102.1124413 496.79630423 C99.85320966 496.79503001 97.59397802 496.79377253 95.33474636 496.79253197 C94.22311557 496.79191487 93.11148478 496.79129776 91.96616821 496.79066196 C84.13065407 496.78720757 76.29517827 496.79303954 68.45967007 496.80245018 C58.90828657 496.81366914 49.35703456 496.81063262 39.80566612 496.7893272 C34.93178232 496.77881396 30.05811775 496.77469957 25.18423557 496.78792381 C20.7218366 496.79984836 16.25985991 496.79328405 11.79749921 496.7720136 C10.18376323 496.76754769 8.56999152 496.7698136 6.95627853 496.77951676 C-2.44572995 496.83171052 -9.74723556 496.77080067 -17.14005375 490.29242516 C-17.67888187 489.64144859 -18.21771 488.99047203 -18.77286625 488.31976891 C-19.32716312 487.67137047 -19.88146 487.02297203 -20.45255375 486.35492516 C-23.760537 481.55387919 -24.18746221 477.15690805 -24.15513515 471.44915104 C-24.15864123 470.66574995 -24.1621473 469.88234886 -24.16575962 469.07520834 C-24.17509139 466.44024284 -24.17014573 463.80549749 -24.16529179 461.17052269 C-24.16902715 459.26624935 -24.17362821 457.36197754 -24.17902243 455.45770818 C-24.19128191 450.21690522 -24.1909885 444.97616596 -24.18863368 439.73535192 C-24.18822626 434.08628054 -24.19925751 428.43722978 -24.20874882 422.78816795 C-24.22537587 411.71763861 -24.23085913 400.64713057 -24.23197357 389.57658979 C-24.23292323 380.57982467 -24.23702937 371.5830666 -24.24337482 362.58630371 C-24.25812412 341.24058519 -24.27042406 319.89487327 -24.26937771 298.54914951 C-24.26934655 297.8663999 -24.26931539 297.18365029 -24.26928329 296.48021129 C-24.26911708 293.01970336 -24.26891899 289.55919543 -24.26871388 286.09868749 C-24.26867399 285.41141064 -24.2686341 284.7241338 -24.268593 284.01603038 C-24.26851212 282.62618884 -24.26842853 281.2363473 -24.26834221 279.84650575 C-24.26711667 258.22225083 -24.28212998 236.59805862 -24.30948734 214.97382164 C-24.34020621 190.68248772 -24.35739462 166.39120781 -24.3555609 142.09985048 C-24.35489632 129.23680448 -24.36041819 116.37382922 -24.381917 103.51079941 C-24.40010285 92.55959165 -24.40449747 81.60848669 -24.39089815 70.65727039 C-24.38435546 65.0684622 -24.38429832 59.47985136 -24.40160465 53.89106178 C-24.41728274 48.77553574 -24.41452559 43.6603644 -24.39703639 38.54484729 C-24.39395488 36.69358649 -24.39764199 34.84229957 -24.40875654 32.99106958 C-24.42286532 30.47458693 -24.41230171 27.95935055 -24.39564419 25.44291019 C-24.40558055 24.72414795 -24.41551691 24.0053857 -24.42575437 23.26484278 C-24.33610843 16.85921638 -22.11026414 11.78195357 -17.9330225 7.01508141 C-17.28204594 6.47625328 -16.63106937 5.93742516 -15.96036625 5.38226891 C-15.31196781 4.82797203 -14.66356937 4.27367516 -13.9955225 3.70258141 C-9.41780823 0.5484766 -5.50735 0.00635907 0 0 Z M40.10213375 16.25726891 C40.10213375 169.37726891 40.10213375 322.49726891 40.10213375 480.25726891 C153.62213375 480.25726891 267.14213375 480.25726891 384.10213375 480.25726891 C384.10213375 327.13726891 384.10213375 174.01726891 384.10213375 16.25726891 C270.58213375 16.25726891 157.06213375 16.25726891 40.10213375 16.25726891 Z " fill="#000000" transform="translate(55.89786624908447,7.742731094360352)"/>
    <path d="M0 0 C2.98681131 2.02096626 2.98681131 2.02096626 5.75 1.125 C6.554375 0.650625 7.35875 0.17625 8.1875 -0.3125 C17.75106457 -5.30218586 26.81146028 -7.06787639 37.51953125 -4.51953125 C41.578099 -3.21338306 45.20312322 -1.99761409 48.71875 0.44921875 C51.12306455 1.9952812 51.12306455 1.9952812 53.66015625 1.0390625 C54.49417969 0.59304687 55.32820313 0.14703125 56.1875 -0.3125 C67.39109751 -5.82246599 76.81835174 -7.01547681 89 -3.75 C95.0727339 -1.64704841 99.55492256 1.2729262 104.1875 5.6875 C104.82429687 6.27273437 105.46109375 6.85796875 106.1171875 7.4609375 C113.15481813 14.61938583 116.41763116 23.7385928 116.75 33.6875 C116.21893071 46.25148146 112.24668943 55.5644265 103.4609375 64.4296875 C97.68637066 69.72963241 91.89386036 72.47250079 84.1875 73.6875 C84.19749275 74.77958015 84.19749275 74.77958015 84.20768738 75.89372253 C84.26786999 82.764554 84.31351074 89.63534591 84.34293652 96.50637341 C84.35857343 100.03862466 84.37977501 103.57065759 84.41381836 107.1027832 C84.45273603 111.16619937 84.46722547 115.22938721 84.48046875 119.29296875 C84.49595261 120.5577153 84.51143646 121.82246185 84.52738953 123.12553406 C84.52772942 124.89680412 84.52772942 124.89680412 84.52807617 126.70385742 C84.53806892 128.25939583 84.53806892 128.25939583 84.54826355 129.84635925 C84.12654631 133.16753187 83.20779606 135.03390144 81.1875 137.6875 C78.45025838 138.59991387 76.83678323 138.8165677 74.01930237 138.82794189 C72.747043 138.83650711 72.747043 138.83650711 71.44908142 138.84524536 C70.05804955 138.84692215 70.05804955 138.84692215 68.63891602 138.84863281 C67.65979248 138.85359772 66.68066895 138.85856262 65.671875 138.86367798 C62.42837831 138.87830011 59.1849305 138.88510101 55.94140625 138.890625 C53.69083148 138.89637553 51.44025674 138.90213328 49.18968201 138.90789795 C44.46946992 138.91840748 39.74927487 138.92425075 35.02905273 138.92773438 C28.97489803 138.93322503 22.92096756 138.95726558 16.86688328 138.98570633 C12.21810747 139.00430901 7.56938599 139.009537 2.9205761 139.01107025 C0.68820912 139.01410166 -1.5441568 139.02214655 -3.77648735 139.03525543 C-6.89600702 139.05226939 -10.01497452 139.05044717 -13.13452148 139.04394531 C-14.05985184 139.0531601 -14.98518219 139.06237488 -15.93855286 139.0718689 C-22.15791068 139.03116755 -22.15791068 139.03116755 -25.35487366 137.35272217 C-28.1487022 134.16099526 -27.93464703 130.97445811 -27.92602539 126.9309082 C-27.92594986 125.74991043 -27.92587433 124.56891266 -27.92579651 123.35212708 C-27.92063522 122.07705795 -27.91547394 120.80198883 -27.91015625 119.48828125 C-27.9087413 118.18295944 -27.90732635 116.87763763 -27.90586853 115.53276062 C-27.9020538 112.06560344 -27.89223244 108.59848826 -27.88116455 105.13134766 C-27.87092798 101.59212818 -27.8663661 98.0529019 -27.86132812 94.51367188 C-27.85060923 87.57159735 -27.83354534 80.62955069 -27.8125 73.6875 C-28.42946747 73.55989288 -29.04643494 73.43228577 -29.68209839 73.30081177 C-30.49196198 73.12822845 -31.30182556 72.95564514 -32.13623047 72.77783203 C-32.93882294 72.60897491 -33.74141541 72.4401178 -34.56832886 72.2661438 C-43.1557329 70.05194186 -50.51217933 61.99491224 -55.05859375 54.68359375 C-60.16314652 45.12891805 -61.81612617 33.92807182 -58.90234375 23.3984375 C-54.20668006 11.4705458 -46.77960631 2.69856999 -35 -2.6875 C-23.6505296 -7.44228724 -10.43533023 -6.62026327 0 0 Z " fill="#020101" transform="translate(243.8125,133.3125)"/>
    <path d="M0 0 C8.91 0 17.82 0 27 0 C27 153.12 27 306.24 27 464 C0 464 0 464 -4 461 C-5.18116298 457.45651105 -5.14316942 454.25696866 -5.13701439 450.57015419 C-5.13966622 449.80335736 -5.14231804 449.03656053 -5.14505023 448.24652743 C-5.1527595 445.65608952 -5.15330302 443.06569888 -5.15390015 440.47525024 C-5.15791367 438.60768904 -5.16235171 436.74012871 -5.1671797 434.87256944 C-5.17916287 429.72408825 -5.18479766 424.57561644 -5.18936086 419.42712402 C-5.19531017 413.88101077 -5.20692151 408.33490877 -5.21765137 402.7888031 C-5.24218798 389.38836139 -5.25680293 375.98791594 -5.26971143 362.58745867 C-5.27342199 358.80487723 -5.27739531 355.02229617 -5.2814641 351.2397151 C-5.30669559 327.76683712 -5.32877191 304.29395817 -5.34119225 280.82106972 C-5.34411364 275.38266624 -5.34708115 269.9442628 -5.35009766 264.50585938 C-5.35046857 263.83019809 -5.35083947 263.1545368 -5.35122162 262.45840093 C-5.36338254 240.54204001 -5.39433611 218.62575929 -5.43601918 196.70943605 C-5.47999317 173.54641142 -5.50572297 150.38343239 -5.51111281 127.22036016 C-5.5145321 114.59042069 -5.52634848 101.96060781 -5.55921555 89.33070755 C-5.58715012 78.57844931 -5.59824436 67.8263436 -5.58702008 57.07405187 C-5.58181684 51.58481741 -5.58482812 46.09590271 -5.60948563 40.60671425 C-5.63185319 35.58557721 -5.63133608 30.56499195 -5.61228175 25.54384606 C-5.60946415 23.72352829 -5.61517707 21.90317408 -5.63009469 20.08291526 C-5.64908909 17.61510684 -5.6374898 15.14928879 -5.61803246 12.68152809 C-5.63088168 11.96875222 -5.6437309 11.25597634 -5.65696949 10.5216012 C-5.55616626 4.73439709 -4.60769965 4.60769965 0 0 Z " fill="#75C2F4" transform="translate(53,24)"/>
    <path d="M0 0 C2.34065914 1.30255905 4.1073276 2.72207087 6.06640625 4.5390625 C8.28270889 6.55435165 9.22668581 7.26370672 12.19140625 8.1015625 C16.34651989 7.02123295 18.81692549 4.74800999 22.09765625 2.046875 C27.23792581 -2.02552165 32.25981917 -3.33460695 38.6953125 -3.12890625 C44.79475486 -2.1562679 50.04668236 0.9820225 54.56640625 5.1015625 C57.11155489 7.51088751 57.11155489 7.51088751 60.171875 7.66796875 C64.0516196 7.20047157 65.4858276 5.99078232 68.37890625 3.4140625 C74.04980281 -1.58492689 78.27099983 -3.15298167 85.765625 -2.953125 C93.56286638 -2.21280499 99.1058889 1.55979895 104.31640625 7.2890625 C108.69569545 13.10761248 109.28027674 19.18685892 108.31640625 26.2890625 C106.44265081 33.98262787 101.63599991 38.76872046 95.31640625 43.2890625 C92.42801389 44.64107594 89.91737294 45.18377686 86.796875 45.73046875 C85.89582031 45.89417969 84.99476563 46.05789062 84.06640625 46.2265625 C82.79023438 46.42572266 82.79023438 46.42572266 81.48828125 46.62890625 C78.95131472 47.14903235 78.95131472 47.14903235 77.31640625 50.2890625 C76.9875024 52.9768598 76.9875024 52.9768598 76.99755859 56.0456543 C76.9776889 57.22665207 76.95781921 58.40764984 76.93734741 59.62443542 C76.9257962 60.89950455 76.914245 62.17457367 76.90234375 63.48828125 C76.8829776 64.79360306 76.86361145 66.09892487 76.84365845 67.44380188 C76.79232991 70.91086772 76.75270832 74.37797239 76.71551514 77.84521484 C76.67547984 81.38453786 76.62438538 84.92369927 76.57421875 88.46289062 C76.47745103 95.40483645 76.39407134 102.34687695 76.31640625 109.2890625 C71.03640625 109.2890625 65.75640625 109.2890625 60.31640625 109.2890625 C60.30706055 108.00741211 60.29771484 106.72576172 60.28808594 105.40527344 C60.24820564 100.64889808 60.1824521 95.89317088 60.10888672 91.13720703 C60.08066576 89.07902352 60.05945684 87.0207314 60.04541016 84.96240234 C60.02399635 82.00301465 59.97735404 79.0449343 59.92578125 76.0859375 C59.92455261 75.16601013 59.92332397 74.24608276 59.92205811 73.29827881 C59.83585947 68.15839057 59.83585947 68.15839057 57.46582031 63.70800781 C54.51010732 61.75678065 52.78903649 61.71029079 49.31640625 62.2890625 C46.97537104 63.65077425 46.97537104 63.65077425 45.31640625 66.2890625 C44.69728411 69.54814817 44.71145215 72.77584412 44.70703125 76.0859375 C44.690495 77.03470764 44.67395874 77.98347778 44.65692139 78.96099854 C44.60839186 81.98708538 44.5870593 85.01266951 44.56640625 88.0390625 C44.53825074 90.09247328 44.5083239 92.14586058 44.4765625 94.19921875 C44.40263141 99.22912529 44.35308692 104.25875194 44.31640625 109.2890625 C39.03640625 109.2890625 33.75640625 109.2890625 28.31640625 109.2890625 C28.30706055 108.00741211 28.29771484 106.72576172 28.28808594 105.40527344 C28.24820564 100.64889808 28.1824521 95.89317088 28.10888672 91.13720703 C28.08066576 89.07902352 28.05945684 87.0207314 28.04541016 84.96240234 C28.02399635 82.00301465 27.97735404 79.0449343 27.92578125 76.0859375 C27.92455261 75.16601013 27.92332397 74.24608276 27.92205811 73.29827881 C27.83585947 68.15839057 27.83585947 68.15839057 25.46582031 63.70800781 C22.51010732 61.75678065 20.78903649 61.71029079 17.31640625 62.2890625 C14.97537104 63.65077425 14.97537104 63.65077425 13.31640625 66.2890625 C12.69728411 69.54814817 12.71145215 72.77584412 12.70703125 76.0859375 C12.690495 77.03470764 12.67395874 77.98347778 12.65692139 78.96099854 C12.60839186 81.98708538 12.5870593 85.01266951 12.56640625 88.0390625 C12.53825074 90.09247328 12.5083239 92.14586058 12.4765625 94.19921875 C12.40263141 99.22912529 12.35308692 104.25875194 12.31640625 109.2890625 C7.03640625 109.2890625 1.75640625 109.2890625 -3.68359375 109.2890625 C-3.70341309 107.51748779 -3.72323242 105.74591309 -3.74365234 103.9206543 C-3.81140711 98.06917303 -3.88818123 92.21784755 -3.97112083 86.36656475 C-4.02107945 82.81871646 -4.0674093 79.27089787 -4.10546875 75.72290039 C-4.14937644 71.64450236 -4.20902605 67.56646705 -4.26953125 63.48828125 C-4.28108246 62.21321213 -4.29263367 60.93814301 -4.30453491 59.62443542 C-4.3244046 58.44343765 -4.34427429 57.26243988 -4.36474609 56.0456543 C-4.37806976 55.00418747 -4.39139343 53.96272064 -4.40512085 52.88969421 C-4.50577151 50.0542574 -4.50577151 50.0542574 -6.68359375 47.2890625 C-9.75270053 46.48206029 -9.75270053 46.48206029 -13.30859375 45.9765625 C-19.82599723 44.69576263 -23.98640329 42.96350628 -28.68359375 38.2890625 C-29.18503906 37.79019531 -29.68648437 37.29132813 -30.203125 36.77734375 C-35.34249362 31.13440587 -36.17410429 25.40681443 -35.984375 18.02734375 C-35.1293056 10.24288081 -30.71549714 5.9430025 -25 0.953125 C-17.14464025 -4.69001708 -8.50405953 -3.69973169 0 0 Z " fill="#FEFEFE" transform="translate(235.68359375,146.7109375)"/>
    <path d="M0 0 C1.20205078 0.01611328 2.40410156 0.03222656 3.64257812 0.04882812 C5.51139648 0.11166992 5.51139648 0.11166992 7.41796875 0.17578125 C8.68318359 0.19833984 9.94839844 0.22089844 11.25195312 0.24414062 C14.37099494 0.30299047 17.48762777 0.38516755 20.60546875 0.48828125 C20.60546875 3.12828125 20.60546875 5.76828125 20.60546875 8.48828125 C19.77354004 8.5022998 19.77354004 8.5022998 18.92480469 8.51660156 C16.40080394 8.57043847 13.87863061 8.65405379 11.35546875 8.73828125 C10.48277344 8.75246094 9.61007813 8.76664063 8.7109375 8.78125 C7.44443359 8.82958984 7.44443359 8.82958984 6.15234375 8.87890625 C5.37729492 8.89985352 4.60224609 8.92080078 3.80371094 8.94238281 C0.66763177 9.72117813 -0.41309667 10.9404174 -2.39453125 13.48828125 C-2.78815456 16.1339483 -2.9354287 18.36434459 -2.90233994 21.00828934 C-2.90864369 21.77267287 -2.91494744 22.53705641 -2.92144221 23.32460308 C-2.93778137 25.90105105 -2.9255108 28.47657884 -2.91351318 31.05303955 C-2.91938519 32.9126581 -2.92701052 34.77227181 -2.93624425 36.63187671 C-2.95657537 41.75363211 -2.95193214 46.87511167 -2.94333673 51.99688911 C-2.93840654 57.5156482 -2.9564585 63.03433669 -2.97175598 68.55307007 C-2.9951079 78.11851853 -3.00381477 87.68389109 -3.0026474 97.24936676 C-3.00098063 111.07951601 -3.02128772 124.90956386 -3.0470027 138.7396861 C-3.08812213 161.1767136 -3.11144059 183.61372362 -3.12353516 206.05078125 C-3.13532801 227.84962713 -3.15549488 249.64843895 -3.18701172 271.44726562 C-3.18797967 272.11906468 -3.18894762 272.79086374 -3.1899449 273.48302034 C-3.19967462 280.22943206 -3.20957472 286.97584351 -3.21959967 293.7222548 C-3.30367256 350.31091366 -3.35898942 406.89957243 -3.39453125 463.48828125 C-5.70703125 463.80078125 -5.70703125 463.80078125 -8.39453125 463.48828125 C-11.78441288 459.65925816 -11.82188296 455.69610618 -11.7776413 450.81233978 C-11.78260081 450.04323526 -11.78756033 449.27413075 -11.79267013 448.48172003 C-11.80566046 445.89532073 -11.7972308 443.30943478 -11.78894043 440.72302246 C-11.79382769 438.85373235 -11.80001673 436.98444526 -11.80739832 435.11516333 C-11.82384155 429.971155 -11.82147101 424.82729949 -11.81602335 419.68327403 C-11.81335859 414.13854627 -11.82787443 408.59385975 -11.84011841 403.04914856 C-11.86119718 392.18415693 -11.86571189 381.31921863 -11.86393052 370.45420897 C-11.86262427 361.62617889 -11.86642004 352.79816549 -11.87385559 343.97013855 C-11.87595472 341.42984629 -11.87805232 338.88955402 -11.88014841 336.34926176 C-11.88119194 335.0850041 -11.88223547 333.82074643 -11.88331062 332.51817793 C-11.89684816 315.39381414 -11.90443516 298.26945656 -11.89998627 281.1450882 C-11.89981431 280.47530867 -11.89964236 279.80552914 -11.89946519 279.11545327 C-11.89857629 275.72065038 -11.89763147 272.32584751 -11.89666718 268.93104464 C-11.89647615 268.25681066 -11.89628512 267.58257667 -11.89608829 266.88791136 C-11.8957012 265.52444682 -11.89531088 264.16098228 -11.89491732 262.79751774 C-11.88894563 241.57606756 -11.90439232 220.35472638 -11.93652344 199.13330078 C-11.97258154 175.29795644 -11.99189199 151.4626807 -11.98698473 127.62730074 C-11.98473678 115.00411005 -11.99003082 102.38102743 -12.01487732 89.75785828 C-12.03584625 79.01295423 -12.03952619 68.26821754 -12.02057773 57.52330673 C-12.01139316 52.03811869 -12.01036002 46.55324306 -12.03093338 41.06807899 C-12.0495446 36.05070597 -12.04525118 31.03390338 -12.02238756 26.01655275 C-12.01817681 24.19764738 -12.02248416 22.3786991 -12.0359835 20.55983895 C-12.05304445 18.0939362 -12.03952863 15.63004771 -12.01815033 13.16422272 C-12.03042786 12.45201854 -12.04270538 11.73981436 -12.05535495 11.00602823 C-11.98558771 7.17458011 -11.46654677 5.57856219 -9.04593897 2.54401159 C-5.76924197 0.00347232 -4.10579266 -0.09729366 0 0 Z " fill="#88CFF8" transform="translate(59.39453125,23.51171875)"/>
    <path d="M0 0 C0.98548828 0.00257813 1.97097656 0.00515625 2.98632812 0.0078125 C4.00533203 0.03617187 5.02433594 0.06453125 6.07421875 0.09375 C7.58532227 0.08988281 7.58532227 0.08988281 9.12695312 0.0859375 C18.40337126 0.20680288 25.12883058 2.18672136 31.99609375 8.6484375 C36.7240002 13.85750257 38.46830608 18.98580504 38.14453125 26.01171875 C36.94928085 34.07356073 33.30622125 39.79722466 27.76171875 45.59375 C28.16003906 46.16222656 28.55835938 46.73070312 28.96875 47.31640625 C34.93078437 56.00559989 38.38959239 63.81070273 37.76171875 74.59375 C35.53848826 79.20536525 35.53848826 79.20536525 32.76171875 80.59375 C29.66008885 80.86345695 27.49546993 80.95856062 24.6796875 79.55859375 C21.94101171 76.75298494 21.63643498 73.62817571 20.94921875 69.90625 C19.46735348 63.07728265 17.56428034 57.93993744 11.76171875 53.59375 C9.7832413 52.55181575 7.78618097 51.5432513 5.76171875 50.59375 C5.7774292 51.29459717 5.79313965 51.99544434 5.80932617 52.7175293 C5.87184287 55.90535351 5.91076256 59.09304851 5.94921875 62.28125 C5.97435547 63.38404297 5.99949219 64.48683594 6.02539062 65.62304688 C6.03505859 66.68974609 6.04472656 67.75644531 6.0546875 68.85546875 C6.07039795 69.83475342 6.0861084 70.81403809 6.10229492 71.82299805 C5.70066604 75.0904433 4.68972754 76.94914654 2.76171875 79.59375 C-0.04743599 80.99832737 -2.12638659 80.84270157 -5.23828125 80.59375 C-8.37419695 78.81390595 -9.07930861 78.07066793 -10.23828125 74.59375 C-10.35299513 72.39739887 -10.40766227 70.19775451 -10.43115234 67.99853516 C-10.43932983 67.33313217 -10.44750732 66.66772919 -10.45593262 65.98216248 C-10.48072478 63.78238821 -10.49728502 61.58267812 -10.51171875 59.3828125 C-10.51704243 58.63055767 -10.5223661 57.87830284 -10.5278511 57.10325241 C-10.55455354 53.12288177 -10.57393922 49.14254221 -10.58837891 45.16210938 C-10.60172805 41.86983517 -10.62960135 38.57817934 -10.67041016 35.28613281 C-10.7197209 31.30795858 -10.74449734 27.33034592 -10.75160599 23.35187912 C-10.75831785 21.83759808 -10.77353854 20.32332955 -10.7974968 18.80922318 C-10.82915066 16.68806974 -10.82918693 14.56908191 -10.82177734 12.44775391 C-10.8298642 11.24212799 -10.83795105 10.03650208 -10.84628296 8.79434204 C-9.71602471 2.84453055 -5.92183247 -0.04736174 0 0 Z " fill="#020000" transform="translate(126.23828125,343.40625)"/>
    <path d="M0 0 C113.52 0 227.04 0 344 0 C344 2.64 344 5.28 344 8 C230.48 8 116.96 8 0 8 C0 5.36 0 2.72 0 0 Z " fill="#F77C5D" transform="translate(96,24)"/>
    <path d="M0 0 C0.98548828 0.00257813 1.97097656 0.00515625 2.98632812 0.0078125 C4.00533203 0.03617187 5.02433594 0.06453125 6.07421875 0.09375 C7.58532227 0.08988281 7.58532227 0.08988281 9.12695312 0.0859375 C18.40133343 0.20677633 25.13552974 2.18342611 31.99609375 8.65234375 C37.00330022 14.15805529 38.47054115 19.44981306 38.1328125 26.859375 C37.03756335 34.92963186 33.28114691 39.90225672 27.04296875 44.99609375 C22.00508443 48.52433808 17.49083561 48.65727941 11.53125 48.625 C9.91053589 48.61823242 9.91053589 48.61823242 8.25708008 48.61132812 C7.43361084 48.60552734 6.6101416 48.59972656 5.76171875 48.59375 C5.7774292 49.35518311 5.79313965 50.11661621 5.80932617 50.90112305 C5.87180328 54.3610894 5.91075047 57.8209369 5.94921875 61.28125 C5.97435547 62.47943359 5.99949219 63.67761719 6.02539062 64.91210938 C6.03505859 66.06904297 6.04472656 67.22597656 6.0546875 68.41796875 C6.07039795 69.48104248 6.0861084 70.54411621 6.10229492 71.6394043 C5.712751 75.01852331 4.76967329 76.87365964 2.76171875 79.59375 C-0.04743599 80.99832737 -2.12638659 80.84270157 -5.23828125 80.59375 C-8.37419695 78.81390595 -9.07930861 78.07066793 -10.23828125 74.59375 C-10.35299513 72.39739887 -10.40766227 70.19775451 -10.43115234 67.99853516 C-10.43932983 67.33313217 -10.44750732 66.66772919 -10.45593262 65.98216248 C-10.48072478 63.78238821 -10.49728502 61.58267812 -10.51171875 59.3828125 C-10.51704243 58.63055767 -10.5223661 57.87830284 -10.5278511 57.10325241 C-10.55455354 53.12288177 -10.57393922 49.14254221 -10.58837891 45.16210938 C-10.60172805 41.86983517 -10.62960135 38.57817934 -10.67041016 35.28613281 C-10.7197209 31.30795858 -10.74449734 27.33034592 -10.75160599 23.35187912 C-10.75831785 21.83759808 -10.77353854 20.32332955 -10.7974968 18.80922318 C-10.82915066 16.68806974 -10.82918693 14.56908191 -10.82177734 12.44775391 C-10.8298642 11.24212799 -10.83795105 10.03650208 -10.84628296 8.79434204 C-9.71602471 2.84453055 -5.92183247 -0.04736174 0 0 Z " fill="#010000" transform="translate(330.23828125,343.40625)"/>
    <path d="M0 0 C0.71353638 -0.00004028 1.42707275 -0.00008057 2.16223145 -0.00012207 C3.66504769 0.0052196 5.1678645 0.02274492 6.67041016 0.05175781 C8.96213745 0.09362918 11.25092314 0.092822 13.54296875 0.0859375 C15.00783278 0.09643114 16.47268176 0.1093702 17.9375 0.125 C18.95801453 0.12530212 18.95801453 0.12530212 19.99914551 0.12561035 C24.2953416 0.23173239 27.04192212 0.97963387 30.46875 3.59375 C31.87332737 6.40290474 31.71770157 8.48185534 31.46875 11.59375 C29.68890595 14.7296657 28.94566793 15.43477736 25.46875 16.59375 C23.76858156 16.67553114 22.06538703 16.70124501 20.36328125 16.69140625 C19.38037109 16.68818359 18.39746094 16.68496094 17.38476562 16.68164062 C16.36060547 16.67326172 15.33644531 16.66488281 14.28125 16.65625 C12.72760742 16.64948242 12.72760742 16.64948242 11.14257812 16.64257812 C8.5846108 16.63079026 6.02667314 16.61285482 3.46875 16.59375 C3.46875 21.87375 3.46875 27.15375 3.46875 32.59375 C5.33080078 32.54154297 5.33080078 32.54154297 7.23046875 32.48828125 C8.87238226 32.46013416 10.51431046 32.43283499 12.15625 32.40625 C12.97287109 32.38111328 13.78949219 32.35597656 14.63085938 32.33007812 C19.40890822 32.27204514 22.60298093 32.44471129 26.46875 35.59375 C27.87332737 38.40290474 27.71770157 40.48185534 27.46875 43.59375 C25.68890595 46.7296657 24.94566793 47.43477736 21.46875 48.59375 C20.06050107 48.67396999 18.64877769 48.70140977 17.23828125 48.69140625 C16.43583984 48.68818359 15.63339844 48.68496094 14.80664062 48.68164062 C13.97326172 48.67326172 13.13988281 48.66488281 12.28125 48.65625 C11.0137793 48.64948242 11.0137793 48.64948242 9.72070312 48.64257812 C7.63668845 48.63080403 5.55271023 48.6128689 3.46875 48.59375 C3.46875 53.87375 3.46875 59.15375 3.46875 64.59375 C4.99886719 64.55894531 6.52898437 64.52414062 8.10546875 64.48828125 C10.12238484 64.46013823 12.13931282 64.43283863 14.15625 64.40625 C15.66735352 64.36854492 15.66735352 64.36854492 17.20898438 64.33007812 C26.60810131 64.23701756 26.60810131 64.23701756 30.46875 67.59375 C31.87332737 70.40290474 31.71770157 72.48185534 31.46875 75.59375 C29.68890595 78.7296657 28.94566793 79.43477736 25.46875 80.59375 C23.00232012 80.71394816 20.5649008 80.78176193 18.09765625 80.796875 C17.01954933 80.80542511 17.01954933 80.80542511 15.91966248 80.81414795 C14.40080227 80.82358423 12.88192172 80.83012648 11.36303711 80.83398438 C9.04309374 80.8437004 6.72403281 80.87473921 4.40429688 80.90625 C2.92708858 80.91277954 1.44987397 80.91803021 -0.02734375 80.921875 C-0.71912216 80.9342218 -1.41090057 80.9465686 -2.12364197 80.95928955 C-5.16948622 80.94524178 -7.25114427 80.74890647 -9.93774414 79.26074219 C-13.08465835 75.96870446 -12.67797099 72.31926185 -12.72412109 67.99853516 C-12.73229858 67.33313217 -12.74047607 66.66772919 -12.74890137 65.98216248 C-12.77369353 63.78238821 -12.79025377 61.58267812 -12.8046875 59.3828125 C-12.81001118 58.63055767 -12.81533485 57.87830284 -12.82081985 57.10325241 C-12.84752229 53.12288177 -12.86690797 49.14254221 -12.88134766 45.16210938 C-12.8946968 41.86983517 -12.9225701 38.57817934 -12.96337891 35.28613281 C-13.01268965 31.30795858 -13.03746609 27.33034592 -13.04457474 23.35187912 C-13.0512866 21.83759808 -13.06650729 20.32332955 -13.09046555 18.80922318 C-13.12211941 16.68806974 -13.12215568 14.56908191 -13.11474609 12.44775391 C-13.12283295 11.24212799 -13.1309198 10.03650208 -13.13925171 8.79434204 C-11.75199301 1.49165017 -6.71502038 -0.16182209 0 0 Z " fill="#010000" transform="translate(392.53125,343.40625)"/>
    <path d="M0 0 C0.71353638 -0.00004028 1.42707275 -0.00008057 2.16223145 -0.00012207 C3.66504769 0.0052196 5.1678645 0.02274492 6.67041016 0.05175781 C8.96213745 0.09362918 11.25092314 0.092822 13.54296875 0.0859375 C15.00783278 0.09643114 16.47268176 0.1093702 17.9375 0.125 C18.95801453 0.12530212 18.95801453 0.12530212 19.99914551 0.12561035 C24.2953416 0.23173239 27.04192212 0.97963387 30.46875 3.59375 C31.87332737 6.40290474 31.71770157 8.48185534 31.46875 11.59375 C29.68890595 14.7296657 28.94566793 15.43477736 25.46875 16.59375 C23.76858156 16.67553114 22.06538703 16.70124501 20.36328125 16.69140625 C19.38037109 16.68818359 18.39746094 16.68496094 17.38476562 16.68164062 C16.36060547 16.67326172 15.33644531 16.66488281 14.28125 16.65625 C12.72760742 16.64948242 12.72760742 16.64948242 11.14257812 16.64257812 C8.5846108 16.63079026 6.02667314 16.61285482 3.46875 16.59375 C3.46875 21.87375 3.46875 27.15375 3.46875 32.59375 C5.33080078 32.54154297 5.33080078 32.54154297 7.23046875 32.48828125 C8.87238226 32.46013416 10.51431046 32.43283499 12.15625 32.40625 C12.97287109 32.38111328 13.78949219 32.35597656 14.63085938 32.33007812 C19.40890822 32.27204514 22.60298093 32.44471129 26.46875 35.59375 C27.87332737 38.40290474 27.71770157 40.48185534 27.46875 43.59375 C25.68890595 46.7296657 24.94566793 47.43477736 21.46875 48.59375 C20.06050107 48.67396999 18.64877769 48.70140977 17.23828125 48.69140625 C16.43583984 48.68818359 15.63339844 48.68496094 14.80664062 48.68164062 C13.97326172 48.67326172 13.13988281 48.66488281 12.28125 48.65625 C11.0137793 48.64948242 11.0137793 48.64948242 9.72070312 48.64257812 C7.63668845 48.63080403 5.55271023 48.6128689 3.46875 48.59375 C3.46875 53.87375 3.46875 59.15375 3.46875 64.59375 C4.99886719 64.55894531 6.52898437 64.52414062 8.10546875 64.48828125 C10.12238484 64.46013823 12.13931282 64.43283863 14.15625 64.40625 C15.66735352 64.36854492 15.66735352 64.36854492 17.20898438 64.33007812 C26.60810131 64.23701756 26.60810131 64.23701756 30.46875 67.59375 C31.87332737 70.40290474 31.71770157 72.48185534 31.46875 75.59375 C29.68890595 78.7296657 28.94566793 79.43477736 25.46875 80.59375 C23.00232012 80.71394816 20.5649008 80.78176193 18.09765625 80.796875 C17.01954933 80.80542511 17.01954933 80.80542511 15.91966248 80.81414795 C14.40080227 80.82358423 12.88192172 80.83012648 11.36303711 80.83398438 C9.04309374 80.8437004 6.72403281 80.87473921 4.40429688 80.90625 C2.92708858 80.91277954 1.44987397 80.91803021 -0.02734375 80.921875 C-0.71912216 80.9342218 -1.41090057 80.9465686 -2.12364197 80.95928955 C-5.16948622 80.94524178 -7.25114427 80.74890647 -9.93774414 79.26074219 C-13.08465835 75.96870446 -12.67797099 72.31926185 -12.72412109 67.99853516 C-12.73229858 67.33313217 -12.74047607 66.66772919 -12.74890137 65.98216248 C-12.77369353 63.78238821 -12.79025377 61.58267812 -12.8046875 59.3828125 C-12.81001118 58.63055767 -12.81533485 57.87830284 -12.82081985 57.10325241 C-12.84752229 53.12288177 -12.86690797 49.14254221 -12.88134766 45.16210938 C-12.8946968 41.86983517 -12.9225701 38.57817934 -12.96337891 35.28613281 C-13.01268965 31.30795858 -13.03746609 27.33034592 -13.04457474 23.35187912 C-13.0512866 21.83759808 -13.06650729 20.32332955 -13.09046555 18.80922318 C-13.12211941 16.68806974 -13.12215568 14.56908191 -13.11474609 12.44775391 C-13.12283295 11.24212799 -13.1309198 10.03650208 -13.13925171 8.79434204 C-11.75199301 1.49165017 -6.71502038 -0.16182209 0 0 Z " fill="#010000" transform="translate(188.53125,343.40625)"/>
    <path d="M0 0 C6.55216296 3.71026095 11.72769217 8.79317851 13.9453125 16.1015625 C14.59538818 20.13651501 14.32927024 23.28128915 12.5703125 27.0390625 C10.9453125 29.1015625 10.9453125 29.1015625 8.9453125 30.1015625 C5.74647908 30.37972193 3.67054569 30.5161744 0.84765625 28.90234375 C-1.48082637 26.69817437 -1.89230707 25.13462106 -2.6171875 22.0390625 C-3.54666158 17.77831606 -3.54666158 17.77831606 -7.0546875 15.1015625 C-10.51483045 14.65984212 -12.31744943 14.58954076 -15.21728516 16.60351562 C-17.78568444 20.09539198 -17.5927834 23.27821835 -17.515625 27.4453125 C-17.51470856 28.25141968 -17.51379211 29.05752686 -17.5128479 29.88806152 C-17.50681633 31.58933413 -17.4910835 33.29059633 -17.46630859 34.99169922 C-17.42981436 37.59252144 -17.42528928 40.19191725 -17.42578125 42.79296875 C-17.41594889 44.44792895 -17.40429137 46.10287952 -17.390625 47.7578125 C-17.38839935 48.53394897 -17.38617371 49.31008545 -17.38388062 50.10974121 C-17.30692143 55.42302283 -17.30692143 55.42302283 -15.0546875 60.1015625 C-12.28368356 61.48706447 -10.1212169 61.2893092 -7.0546875 61.1015625 C-3.03346122 58.42074498 -3.05759699 56.04480489 -1.99609375 51.51171875 C-0.85994518 48.60298985 0.27269645 47.65808608 2.9453125 46.1015625 C6.97226887 45.41612312 8.44267419 45.75190107 11.8203125 48.1015625 C14.03610472 51.22973976 14.63944769 53.10081447 14.3515625 56.9296875 C12.72944282 65.60178887 8.1016355 71.10679099 0.9453125 76.1015625 C-4.98005304 78.68717655 -11.90789948 79.23112633 -18.19140625 77.51953125 C-24.69195949 74.7226331 -30.36759572 69.06447872 -33.13769531 62.55761719 C-34.3177754 58.11000972 -34.37909462 53.97298652 -34.390625 49.390625 C-34.3972818 48.46365814 -34.4039386 47.53669128 -34.41079712 46.58163452 C-34.42089133 44.62670873 -34.42561514 42.6717487 -34.42529297 40.71679688 C-34.42966348 37.74290595 -34.46600996 34.77050353 -34.50390625 31.796875 C-34.50977581 29.89063003 -34.51374427 27.98437807 -34.515625 26.078125 C-34.52999603 25.1976651 -34.54436707 24.3172052 -34.55917358 23.4100647 C-34.50678421 16.25038384 -32.64541618 11.02134616 -27.87109375 5.640625 C-26.75541016 4.69316406 -26.75541016 4.69316406 -25.6171875 3.7265625 C-24.87597656 3.07945312 -24.13476562 2.43234375 -23.37109375 1.765625 C-16.42365906 -3.22528087 -7.75505918 -3.35947908 0 0 Z " fill="#030100" transform="translate(262.0546875,345.8984375)"/>
    <path d="M0 0 C4.05849678 0.84552016 5.40187475 2.43410449 8 5.625 C8.62145996 8.81213379 8.62145996 8.81213379 8.61523438 12.44726562 C8.62078339 13.11296066 8.6263324 13.7786557 8.63204956 14.46452332 C8.64381299 16.65417606 8.61960909 18.8417436 8.59375 21.03125 C8.59203789 22.55912176 8.5921056 24.08699646 8.59387207 25.61486816 C8.59222073 28.8127056 8.57355839 32.00984039 8.54199219 35.20751953 C8.50231448 39.29991941 8.49794795 43.39139964 8.50545502 47.48395538 C8.50852928 50.63763811 8.49638812 53.79111533 8.47932434 56.94474792 C8.47230909 58.45337128 8.46916802 59.96201792 8.47001648 61.47065735 C8.46821217 63.58177525 8.44677892 65.69180541 8.41992188 67.80273438 C8.41150269 69.00232788 8.4030835 70.20192139 8.39440918 71.43786621 C7.96267056 74.926651 7.09354151 76.82780348 5 79.625 C2.19084526 81.02957737 0.11189466 80.87395157 -3 80.625 C-6.1359157 78.84515595 -6.84102736 78.10191793 -8 74.625 C-8.11471388 72.42864887 -8.16938102 70.22900451 -8.19287109 68.02978516 C-8.20104858 67.36438217 -8.20922607 66.69897919 -8.21765137 66.01341248 C-8.24244353 63.81363821 -8.25900377 61.61392812 -8.2734375 59.4140625 C-8.27876118 58.66180767 -8.28408485 57.90955284 -8.28956985 57.13450241 C-8.31627229 53.15413177 -8.33565797 49.17379221 -8.35009766 45.19335938 C-8.3634468 41.90108517 -8.3913201 38.60942934 -8.43212891 35.31738281 C-8.48143965 31.33920858 -8.50621609 27.36159592 -8.51332474 23.38312912 C-8.5200366 21.86884808 -8.53525729 20.35457955 -8.55921555 18.84047318 C-8.59086941 16.71931974 -8.59090568 14.60033191 -8.58349609 12.47900391 C-8.59158295 11.27337799 -8.5996698 10.06775208 -8.60800171 8.82559204 C-7.65856353 3.8276385 -4.98208815 1.03793503 0 0 Z " fill="#010000" transform="translate(296,343.375)"/>
    <path d="M0 0 C5.28 0 10.56 0 16 0 C16 15.84 16 31.68 16 48 C10.72 48 5.44 48 0 48 C0 32.16 0 16.32 0 0 Z " fill="#FCD841" transform="translate(456,248)"/>
    <path d="M0 0 C5.28 0 10.56 0 16 0 C16 15.84 16 31.68 16 48 C10.72 48 5.44 48 0 48 C0 32.16 0 16.32 0 0 Z " fill="#75C3F5" transform="translate(456,152)"/>
    <path d="M0 0 C5.28 0 10.56 0 16 0 C16 15.84 16 31.68 16 48 C10.72 48 5.44 48 0 48 C0 32.16 0 16.32 0 0 Z " fill="#FFE675" transform="translate(456,56)"/>
    <path d="M0 0 C2.64 0 5.28 0 8 0 C8 15.84 8 31.68 8 48 C5.36 48 2.72 48 0 48 C0 32.16 0 16.32 0 0 Z " fill="#FAC819" transform="translate(456,248)"/>
    <path d="M0 0 C2.64 0 5.28 0 8 0 C8 15.84 8 31.68 8 48 C5.36 48 2.72 48 0 48 C0 32.16 0 16.32 0 0 Z " fill="#55BDE5" transform="translate(456,152)"/>
    <path d="M0 0 C2.64 0 5.28 0 8 0 C8 15.84 8 31.68 8 48 C5.36 48 2.72 48 0 48 C0 32.16 0 16.32 0 0 Z " fill="#FCD841" transform="translate(456,56)"/>
    <path d="M0 0 C10.9030837 -0.43612335 10.9030837 -0.43612335 15 3 C16.40457737 5.80915474 16.24895157 7.88810534 16 11 C14.22015595 14.1359157 13.47691793 14.84102736 10 16 C8.27204648 16.06802967 6.54164635 16.08495645 4.8125 16.0625 C3.224375 16.041875 1.63625 16.02125 0 16 C0 10.72 0 5.44 0 0 Z " fill="#F05C3A" transform="translate(336,360)"/>
    <path d="M0 0 C10.9030837 -0.43612335 10.9030837 -0.43612335 15 3 C16.40457737 5.80915474 16.24895157 7.88810534 16 11 C14.22015595 14.1359157 13.47691793 14.84102736 10 16 C8.27204648 16.06802967 6.54164635 16.08495645 4.8125 16.0625 C3.224375 16.041875 1.63625 16.02125 0 16 C0 10.72 0 5.44 0 0 Z " fill="#F05C3A" transform="translate(132,360)"/>
</svg>
